<svg width="80" height="80" viewBox="0 0 80 80" fill="none" xmlns="http://www.w3.org/2000/svg">
<circle cx="40" cy="40" r="40" fill="#00CB87"/>
<path d="M40.0001 15.5557C53.5008 15.5557 64.4446 26.4994 64.4446 40.0001C64.4446 53.5008 53.5008 64.4446 40.0001 64.4446C35.8396 64.4507 31.7469 63.3903 28.1128 61.3646L27.3672 60.9294L19.9557 63.1099C19.5524 63.2287 19.1254 63.2426 18.7152 63.1502C18.305 63.0578 17.9252 62.8621 17.6118 62.5818C17.2984 62.3015 17.0618 61.9457 16.9244 61.5483C16.7871 61.1509 16.7534 60.725 16.8268 60.311L16.8904 60.0446L19.0708 52.633C16.7656 48.8228 15.5498 44.4533 15.5557 40.0001C15.5557 26.4994 26.4995 15.5557 40.0001 15.5557ZM40.0001 20.4446C36.4988 20.4439 33.0615 21.3834 30.0472 23.1648C27.0329 24.9462 24.5521 27.5042 22.864 30.5717C21.1759 33.6393 20.3423 37.1038 20.4503 40.6035C20.5584 44.1032 21.604 47.5096 23.4781 50.4672C23.9621 51.2299 24.1699 52.1686 24.0061 53.0999L23.9108 53.4983L22.8328 57.1674L26.5019 56.0894C27.5604 55.7766 28.6604 55.9672 29.533 56.5221C32.0956 58.1447 35.0005 59.149 38.018 59.4555C41.0356 59.7621 44.0831 59.3625 46.9196 58.2884C49.7562 57.2143 52.304 55.4952 54.3617 53.2668C56.4193 51.0384 57.9305 48.362 58.7756 45.449C59.6207 42.5361 59.7767 39.4664 59.2312 36.4828C58.6856 33.4992 57.4536 30.6834 55.6323 28.2579C53.8111 25.8325 51.4507 23.8639 48.7376 22.5079C46.0245 21.1518 43.0332 20.4454 40.0001 20.4446ZM32.9161 28.2277C33.1868 28.1105 33.4832 28.0657 33.7764 28.0979C34.0696 28.13 34.3493 28.2379 34.5881 28.411C35.8201 29.3106 36.7979 30.5181 37.6388 31.6963L38.4381 32.855L38.8121 33.405C39.0279 33.7205 39.1338 34.0983 39.1135 34.48C39.0932 34.8618 38.9478 35.2262 38.6997 35.517L38.5163 35.7028L36.2577 37.3797C36.149 37.4584 36.0725 37.5738 36.0424 37.7046C36.0123 37.8354 36.0306 37.9727 36.0939 38.091C36.6072 39.0199 37.5141 40.4059 38.5555 41.4472C39.5992 42.4886 41.0488 43.4566 42.0412 44.0261C42.2564 44.1483 42.5155 44.1092 42.6915 43.9503L42.7844 43.8403L44.2535 41.6037C44.5231 41.2444 44.9215 41.0035 45.3649 40.9315C45.8083 40.8595 46.2624 40.962 46.6319 41.2174L47.9592 42.1439C49.2792 43.085 50.5479 44.097 51.5526 45.3803C51.7394 45.621 51.8581 45.9075 51.8964 46.2098C51.9347 46.5121 51.8911 46.8191 51.7701 47.0988C50.8021 49.3574 48.3503 51.2812 45.8032 51.1883L45.4146 51.1639L44.9477 51.1199C44.8596 51.1094 44.7716 51.098 44.6837 51.0857L44.1019 50.9879C41.8432 50.5626 38.223 49.2817 34.4708 45.5319C30.721 41.7797 29.4401 38.1594 29.0148 35.9008L28.917 35.319L28.8559 34.8106L28.8241 34.3828C28.8203 34.3217 28.817 34.2606 28.8144 34.1994C28.7215 31.6474 30.655 29.1957 32.9161 28.2277Z" fill="white"/>
</svg>
