<svg width="145" height="32" viewBox="0 0 145 32" fill="none" xmlns="http://www.w3.org/2000/svg">
<path d="M39.6501 8.93761C41.4098 7.03099 43.5371 6.08325 46.043 6.08325C47.4352 6.08325 48.7383 6.44005 49.9189 7.16479C51.1106 7.88952 51.9905 8.81496 52.5585 9.92994L52.8035 6.35085H56.5458V25.261H52.8035L52.5585 21.7153C51.9905 22.8191 51.0995 23.7223 49.9189 24.4359C48.7272 25.1495 47.4352 25.5063 46.043 25.5063C43.5482 25.5063 41.4098 24.5585 39.6389 22.6519C37.8681 20.7453 36.9771 18.4707 36.9771 15.8059C36.9771 13.1411 37.8681 10.8331 39.6612 8.92646L39.6501 8.93761ZM42.7797 19.7975C43.8823 20.9237 45.2077 21.4812 46.767 21.4812C48.3262 21.4812 49.685 20.9237 50.7988 19.8087C51.9125 18.6937 52.4694 17.3669 52.4694 15.8059C52.4694 14.2449 51.9125 12.8735 50.7988 11.7697C49.685 10.6547 48.3374 10.0972 46.767 10.0972C45.1966 10.0972 43.8823 10.6547 42.7797 11.7697C41.6771 12.8846 41.1314 14.2226 41.1314 15.8059C41.1314 17.3892 41.6771 18.6937 42.7797 19.7975Z" fill="white"/>
<path d="M60.6661 6.36194H64.7536V15.9842C64.7536 17.8128 65.1769 19.1954 66.0233 20.1208C66.8698 21.0463 67.9501 21.5146 69.2532 21.5146C70.5563 21.5146 71.6366 21.0463 72.4831 20.1208C73.3296 19.1954 73.7528 17.8128 73.7528 15.9842V6.36194H77.8403V25.272H74.098L73.853 22.217C73.3073 23.1982 72.5388 24.001 71.5698 24.6254C70.6009 25.2497 69.4871 25.5508 68.2508 25.5508C65.9342 25.5508 64.0965 24.7592 62.7266 23.1647C61.3567 21.5703 60.6661 19.1842 60.6661 15.9954V6.36194Z" fill="white"/>
<path d="M82.3071 6.3617H86.0494L86.3278 9.24951C87.4972 7.25369 89.3683 6.26135 91.9634 6.26135H92.1305C92.6985 6.26135 93.2331 6.2948 93.712 6.3617L92.8878 10.2753C92.7319 10.253 92.5091 10.2418 92.2307 10.2418C90.5378 10.2418 89.1456 10.7659 88.043 11.8028C86.9404 12.8509 86.3946 14.5568 86.3946 16.9429V25.2607H82.3071V6.3617Z" fill="white"/>
<path d="M96.3846 6.36194H100.472V15.9842C100.472 17.8128 100.895 19.1954 101.742 20.1208C102.588 21.0463 103.669 21.5146 104.972 21.5146C106.275 21.5146 107.355 21.0463 108.202 20.1208C109.048 19.1954 109.471 17.8128 109.471 15.9842V6.36194H113.559V25.272H109.817L109.572 22.217C109.026 23.1982 108.257 24.001 107.288 24.6254C106.319 25.2497 105.206 25.5508 103.969 25.5508C101.653 25.5508 99.815 24.7592 98.4451 23.1647C97.0752 21.5703 96.3846 19.1842 96.3846 15.9954V6.36194Z" fill="white"/>
<path d="M118.014 25.2719V6.3618H121.756L122.001 9.2496C122.48 8.26842 123.182 7.48793 124.095 6.93044C125.008 6.37294 125.988 6.08305 127.013 6.08305C128.36 6.08305 129.519 6.41754 130.477 7.07538C131.434 7.74437 132.147 8.62521 132.604 9.71789C133.061 8.63636 133.762 7.76667 134.698 7.08653C135.633 6.40639 136.714 6.0719 137.928 6.0719C140.099 6.0719 141.826 6.81894 143.095 8.32416C144.365 9.82939 145 12.1486 145 15.2817V25.2496H140.913V15.2817C140.913 13.4977 140.567 12.182 139.888 11.3458C139.197 10.5095 138.317 10.097 137.248 10.097C136.179 10.097 135.31 10.5207 134.609 11.3458C133.896 12.182 133.539 13.4977 133.539 15.2817V25.2496H129.452V15.2817C129.452 13.4754 129.107 12.1486 128.416 11.3235C127.726 10.4984 126.846 10.0858 125.777 10.0858C124.707 10.0858 123.85 10.5541 123.148 11.4796C122.446 12.405 122.101 13.7876 122.101 15.6273V25.2496H118.014V25.2719Z" fill="white"/>
<path d="M26.875 0H13.3539C11.338 0 9.68969 1.63902 9.68969 3.66829V10.0683H3.66426C1.64836 10.0683 0 11.7073 0 13.7366V28.131C0 30.1491 1.63722 31.7993 3.66426 31.7993H17.5083C19.5242 31.7993 21.1725 30.1603 21.1725 28.131V22.177H26.8861C28.902 22.177 30.5504 20.538 30.5504 18.5087V3.66829C30.5504 1.65017 28.9131 0 26.8861 0H26.875ZM2.92918 28.1199V13.7254C2.92918 13.324 3.25217 12.9895 3.66426 12.9895H9.70082V28.8446H3.66426C3.26331 28.8446 2.92918 28.5213 2.92918 28.1087V28.1199ZM17.4971 28.8558H12.6189V3.66829C12.6189 3.2669 12.9419 2.9324 13.3539 2.9324H18.2322V28.1199C18.2322 28.5213 17.9092 28.8558 17.4971 28.8558ZM27.61 18.5087C27.61 18.9101 27.287 19.2446 26.875 19.2446H21.1614V2.9324H26.875C27.2759 2.9324 27.61 3.25575 27.61 3.66829V18.5087Z" fill="#F3E902"/>
</svg>
